<svg width="73" height="84" viewBox="0 0 73 84" fill="none" xmlns="http://www.w3.org/2000/svg">
<path d="M72.996 81.7579C72.0663 66.1579 61.5045 53.1789 47.2237 48.7684C55.8737 44.6947 61.8806 35.8421 61.8806 25.5789C61.8806 11.4526 50.5144 0 36.4948 0C22.4751 0 11.1089 11.4526 11.1089 25.5789C11.1089 35.8421 17.1159 44.6947 25.7763 48.7684C11.4955 53.1789 0.933722 66.1579 0.00395303 81.7579C-0.0691749 82.9684 0.881487 84 2.09332 84C3.19024 84 4.10956 83.1368 4.18269 82.0316C5.17514 64.9263 19.2679 51.3684 36.4948 51.3684C53.7216 51.3684 67.8144 64.9263 68.8173 82.0316C68.88 83.1368 69.7993 84 70.9067 84C72.1185 84 73.0692 82.9684 72.996 81.7579ZM15.2877 25.5789C15.2877 13.7789 24.7839 4.21053 36.4948 4.21053C48.2057 4.21053 57.7019 13.7789 57.7019 25.5789C57.7019 37.3789 48.2057 46.9474 36.4948 46.9474C24.7839 46.9474 15.2877 37.3789 15.2877 25.5789Z" fill="black"/>
</svg>
