<svg width="645" height="138" viewBox="0 0 645 138" fill="none" xmlns="http://www.w3.org/2000/svg">
<g clip-path="url(#clip0_1_14)">
<path d="M118.438 76.495C118.36 77.642 118.328 78.58 118.328 79.029C118.328 80.089 117.587 80.974 116.595 81.196L113.677 82.092C113.46 82.158 113.241 82.191 113.026 82.191V82.197H112.562C111.528 82.197 110.658 81.489 110.412 80.531L107.856 72.744L107.85 72.725L107.847 72.726L107.383 71.259L103.054 79.036C102.867 79.371 102.608 79.639 102.305 79.83L102.308 79.834L100.052 81.265C99.017 81.921 97.646 81.615 96.989 80.58C96.823 80.318 96.719 80.035 96.673 79.748L94.479 67.427L91.158 65.074L83.365 63.683C83.632 64.106 83.903 64.524 84.171 64.937C85.559 67.079 86.856 69.08 87.286 71.142C87.979 74.457 86.742 77.229 81.223 79.209C81.382 79.305 81.539 79.41 81.695 79.529C83.845 81.174 84.363 83.6 79.674 89.725C78.49 91.272 77.472 92.639 76.617 93.827C75.945 94.762 75.318 95.662 74.741 96.527L75.796 104.203C75.938 105.237 75.69 106.243 75.024 107.212C74.53 107.931 73.8 108.614 72.822 109.255C72.176 109.679 71.624 110.105 71.172 110.532C70.993 110.7 70.831 110.868 70.684 111.034L71.169 113.227C71.401 114.278 70.845 115.319 69.894 115.732L69.895 115.734L69.082 116.088C68.921 116.718 68.689 117.336 68.391 117.942C67.909 118.916 67.241 119.868 66.39 120.796C65.484 121.787 64.486 122.537 63.398 123.045C62.262 123.576 61.065 123.841 59.804 123.841H55.896C54.67 123.841 53.675 122.847 53.675 121.62C53.675 120.617 53.553 119.553 53.312 118.425C53.062 117.258 52.681 116.008 52.171 114.674C51.596 113.17 51.157 111.809 50.855 110.591C50.533 109.293 50.372 108.169 50.372 107.217C50.372 106.367 50.445 105.606 50.591 104.933C50.764 104.13 51.043 103.448 51.427 102.885C51.467 102.826 51.512 102.658 51.563 102.379C51.641 101.95 51.681 101.361 51.681 100.608C51.681 100.035 51.582 99.432 51.387 98.8C51.17 98.1 50.835 97.353 50.385 96.564C49.823 95.579 49.399 94.784 49.114 94.181C48.704 93.316 48.499 92.622 48.499 92.107C48.499 88.482 47.256 87.683 45.53 87.683C44.493 87.683 43.326 87.841 42.113 88.006C40.602 88.211 39.029 88.424 37.484 88.424C36.319 88.424 35.169 87.892 34.047 86.836C33.22 86.058 32.355 84.93 31.464 83.461C30.656 82.13 30.046 81.055 29.632 80.245C29.062 79.129 28.778 78.274 28.778 77.702C28.778 76.239 28.777 76.114 28.776 75.997C28.717 69.835 28.663 64.008 34.606 59.714C37.07 56.211 39.289 53.939 41.958 52.493C44.737 50.987 47.829 50.46 52.01 50.46C53.236 50.46 54.231 51.455 54.231 52.681V55.83L56.895 56.996L56.933 56.815C57.187 55.618 58.364 54.853 59.561 55.106L59.57 55.108V55.106C60.394 55.284 61.144 55.495 61.826 55.743C62.556 56.009 63.187 56.312 63.724 56.658C64.005 56.84 64.51 57.001 65.116 57.107C65.794 57.225 66.521 57.249 67.135 57.127C67.461 57.062 67.705 56.985 67.776 56.901L67.777 56.895C67.776 56.895 67.775 56.895 67.776 56.893L67.79 56.822C67.846 56.491 67.894 56.156 67.935 55.818L65.298 56.053C64.35 56.135 63.49 55.607 63.107 54.794L63.103 54.795C62.233 52.965 60.395 52.026 58.088 50.849C55.608 49.583 52.688 48.092 49.543 45.098C38.93 48.863 35.539 49.381 34.689 47.014C34.189 45.626 34.907 44.515 35.874 43.019C36.746 41.67 37.987 39.752 37.987 37.95C37.987 36.985 38.604 36.163 39.465 35.857L48.399 31.776H48.397C47.434 31.606 46.241 31.394 45.252 26.587C45.05 25.6 45.54 24.632 46.389 24.186L46.388 24.184C47.085 23.817 47.903 23.316 48.842 22.68C49.794 22.035 50.933 21.207 52.261 20.193L52.345 20.129C47.803 20.836 43.436 22.083 39.249 23.872L39.25 23.875C35.756 25.378 32.499 27.138 29.484 29.16C26.464 31.187 23.666 33.488 21.092 36.071L21.083 36.08C18.5 38.654 16.199 41.452 14.173 44.472C12.15 47.486 10.39 50.743 8.887 54.238C8.871 54.274 8.855 54.309 8.838 54.344C7.38 57.76 6.288 61.302 5.553 64.97C4.812 68.673 4.442 72.497 4.442 76.44C4.442 80.383 4.813 84.208 5.554 87.911C5.594 88.11 5.635 88.31 5.678 88.511L15.949 93.422C16.717 93.79 17.177 94.543 17.205 95.339C17.315 98.275 16.533 100.446 15.729 102.673C15.131 104.329 14.52 106.023 14.422 108.017C14.412 108.228 14.373 108.43 14.309 108.621C16.3 111.559 18.553 114.286 21.074 116.799L21.083 116.808C23.656 119.391 26.455 121.692 29.475 123.718C32.489 125.74 35.746 127.501 39.241 129.004C39.277 129.019 39.312 129.035 39.347 129.053C42.761 130.502 46.304 131.594 49.972 132.328C53.675 133.069 57.499 133.439 61.442 133.439C65.384 133.439 69.209 133.069 72.911 132.328C76.618 131.586 80.196 130.478 83.643 129.007L83.641 129.004C87.136 127.501 90.393 125.74 93.408 123.718C96.427 121.692 99.225 119.39 101.8 116.807L101.809 116.799C104.391 114.226 106.693 111.427 108.718 108.407C110.741 105.393 112.501 102.136 114.004 98.641C114.02 98.605 114.035 98.57 114.053 98.535C115.503 95.121 116.595 91.579 117.329 87.912C118.064 84.225 118.435 80.419 118.438 76.495ZM37.497 19.801C44.986 16.6 52.975 15 61.44 15C65.67 15 69.784 15.399 73.776 16.198C77.719 16.988 81.552 18.173 85.271 19.753C85.311 19.768 85.352 19.784 85.392 19.801C89.102 21.397 92.596 23.289 95.869 25.486C99.134 27.676 102.155 30.16 104.929 32.943L104.938 32.952C107.721 35.726 110.205 38.747 112.395 42.012C114.59 45.284 116.484 48.779 118.08 52.489L118.076 52.49L118.08 52.497C119.684 56.251 120.885 60.121 121.683 64.103C122.482 68.095 122.881 72.209 122.881 76.44C122.881 80.671 122.482 84.785 121.683 88.777C120.894 92.721 119.707 96.554 118.127 100.273C118.112 100.313 118.097 100.352 118.08 100.392C116.484 104.102 114.591 107.596 112.395 110.869C110.205 114.134 107.721 117.155 104.938 119.929L104.929 119.938C102.156 122.721 99.134 125.205 95.869 127.395C92.597 129.591 89.102 131.484 85.392 133.08L85.391 133.077L85.383 133.08C81.629 134.684 77.759 135.886 73.777 136.683C69.784 137.482 65.671 137.881 61.44 137.881C57.209 137.881 53.095 137.482 49.103 136.683C45.16 135.894 41.328 134.709 37.609 133.128C37.568 133.113 37.528 133.098 37.488 133.08C33.778 131.484 30.284 129.592 27.01 127.395C23.746 125.205 20.724 122.721 17.95 119.938L17.941 119.929C15.159 117.156 12.675 114.134 10.485 110.869C8.289 107.597 6.396 104.102 4.8 100.392L4.803 100.39L4.8 100.383C3.196 96.629 1.994 92.76 1.197 88.777C0.4 84.784 0 80.671 0 76.439C0 72.208 0.4 68.094 1.199 64.102C1.988 60.159 3.174 56.326 4.755 52.606C4.77 52.566 4.785 52.527 4.802 52.487C6.398 48.777 8.29 45.282 10.487 42.01C12.677 38.746 15.161 35.724 17.943 32.95L17.952 32.941C20.726 30.158 23.748 27.674 27.012 25.484C30.285 23.288 33.78 21.395 37.49 19.799L37.491 19.802L37.497 19.801ZM9.681 98.705C10.164 99.823 10.692 100.93 11.264 102.02C11.364 101.738 11.464 101.457 11.565 101.179C12.082 99.748 12.588 98.345 12.741 96.79L8.08 94.562C8.546 95.945 9.079 97.325 9.681 98.697L9.678 98.698L9.681 98.705ZM86.745 25.755C84.685 24.719 82.541 23.803 80.313 23.011C72.066 24.91 69.681 23.771 67.036 22.506C65.691 21.863 64.256 21.176 61.09 21.176H59.196C59.005 21.176 58.606 21.338 57.998 21.663C57.186 22.098 56.167 22.781 54.94 23.717C53.628 24.718 52.42 25.592 51.313 26.342C50.668 26.779 50.078 27.158 49.542 27.482C50.6 27.726 51.408 28.388 51.971 33.337H51.967C52.069 34.26 51.578 35.185 50.687 35.592L42.293 39.426C41.884 41.862 40.558 43.914 39.577 45.431C39.557 45.463 39.534 45.487 39.51 45.504C40.574 44.868 43.136 42.72 49.23 40.512C50.058 40.153 51.057 40.326 51.715 41.018C54.706 44.146 57.641 45.643 60.092 46.895C62.661 48.206 64.792 49.294 66.312 51.523L69.897 51.203C70.026 51.18 70.16 51.167 70.296 51.167C71.522 51.167 72.517 52.161 72.517 53.387C72.517 54.078 72.485 54.789 72.422 55.512C72.362 56.178 72.273 56.868 72.151 57.577C72.147 57.603 72.143 57.63 72.138 57.656C72.033 58.262 71.814 58.803 71.505 59.283C70.716 60.51 69.435 61.194 67.993 61.481C66.823 61.714 65.516 61.683 64.345 61.479C63.186 61.277 62.093 60.884 61.322 60.388C61.16 60.284 60.973 60.184 60.761 60.089L60.658 60.574H60.656C60.625 60.717 60.58 60.86 60.519 60.999C60.03 62.12 58.726 62.632 57.604 62.144L51.273 59.372C50.405 59.071 49.781 58.245 49.781 57.274V54.97C47.448 55.12 45.624 55.546 44.049 56.4C41.997 57.511 40.19 59.428 38.067 62.481C37.91 62.734 37.698 62.959 37.437 63.137C33.099 66.115 33.144 70.9 33.191 75.966C33.201 76.991 33.211 77.396 33.211 77.706C33.211 77.81 33.328 77.777 33.563 78.236C33.934 78.963 34.492 79.944 35.239 81.174C35.909 82.278 36.525 83.093 37.077 83.612C37.34 83.86 37.475 83.985 37.478 83.985C38.817 83.985 40.195 83.798 41.518 83.619C42.926 83.429 44.281 83.245 45.524 83.245C49.834 83.245 52.934 84.844 52.934 92.109C52.934 92.243 52.995 92.037 53.116 92.293C53.362 92.813 53.734 93.509 54.231 94.381C54.837 95.444 55.3 96.485 55.615 97.502C55.949 98.579 56.118 99.617 56.118 100.61C56.118 101.58 56.048 102.436 55.913 103.178C55.747 104.082 55.469 104.818 55.082 105.384C55.025 105.468 54.972 105.624 54.922 105.853C54.846 106.206 54.808 106.661 54.808 107.218C54.808 107.837 54.923 108.609 55.152 109.533C55.402 110.538 55.788 111.725 56.312 113.096C56.896 114.625 57.342 116.095 57.644 117.506C57.782 118.152 57.891 118.784 57.967 119.4H59.799C60.429 119.4 61.003 119.28 61.519 119.039C62.082 118.775 62.618 118.367 63.124 117.813C63.677 117.208 64.107 116.597 64.412 115.981C64.679 115.444 64.843 114.911 64.901 114.383C64.956 113.584 65.442 112.842 66.226 112.5L66.451 112.401L66.14 110.997C66.018 110.445 66.107 109.847 66.435 109.332C66.889 108.619 67.456 107.942 68.131 107.305C68.787 106.684 69.542 106.096 70.389 105.541C70.887 105.215 71.212 104.934 71.376 104.695C71.377 104.694 71.378 104.695 71.379 104.697L71.392 104.706L70.253 96.424C70.145 95.875 70.242 95.286 70.572 94.781C71.213 93.802 72.029 92.621 73.021 91.241C73.983 89.905 75.027 88.501 76.148 87.036C78.611 83.817 79.075 83.105 79.002 83.05C78.85 82.933 78.481 82.781 78.094 82.623C76.581 82.004 74.915 81.32 74.13 79.086C74.087 78.975 74.053 78.858 74.027 78.738C73.778 77.541 74.547 76.367 75.745 76.119C81.767 74.86 83.255 73.524 82.945 72.043C82.683 70.787 81.606 69.126 80.454 67.348C79.306 65.577 78.093 63.704 77.277 61.658C77.084 61.256 77.01 60.792 77.092 60.319C77.303 59.112 78.452 58.304 79.659 58.515L92.39 60.787L92.389 60.796C92.702 60.851 93.007 60.973 93.284 61.169L97.611 64.234C98.16 64.551 98.57 65.1 98.687 65.774L100.306 74.863L105.93 64.759C106.184 64.213 106.657 63.771 107.276 63.576C108.445 63.207 109.692 63.856 110.061 65.025L112.076 71.391H112.073L113.954 77.121C114.024 75.899 114.151 74.31 114.355 72.721C114.563 71.104 114.854 69.49 115.253 68.252C115.545 67.344 115.925 66.573 116.409 65.999C116.078 63.888 115.626 61.81 115.051 59.767C114.357 57.303 113.483 54.9 112.43 52.562C111.364 50.206 110.165 47.96 108.832 45.819C107.485 43.658 106.02 41.623 104.431 39.708C102.825 37.782 101.093 35.979 99.241 34.299C97.402 32.633 95.421 31.075 93.299 29.628C91.198 28.188 89.011 26.895 86.745 25.755ZM71.405 104.793L71.394 104.708L71.381 104.699C71.392 104.72 71.415 104.86 71.405 104.793ZM38.844 45.524C38.929 45.761 39.109 45.74 39.473 45.528L38.844 45.524Z" fill="black"/>
</g>
<path d="M184.621 26.6875V112H173.957V26.6875H184.621ZM207.062 26.6875V35.9453H151.574V26.6875H207.062ZM224.172 58.5625V112H213.801V48.6016H223.82L224.172 58.5625ZM239.934 48.25L239.992 58.3281C239.133 58.1328 238.352 58.0156 237.648 57.9766C236.984 57.8984 236.203 57.8594 235.305 57.8594C233.352 57.8594 231.633 58.25 230.148 59.0312C228.703 59.8125 227.453 60.9062 226.398 62.3125C225.344 63.7188 224.504 65.3984 223.879 67.3516C223.254 69.2656 222.824 71.375 222.59 73.6797L219.895 75.4375C219.895 71.6094 220.188 68.0156 220.773 64.6562C221.398 61.2969 222.355 58.3281 223.645 55.75C224.934 53.1328 226.574 51.1016 228.566 49.6562C230.598 48.1719 233.02 47.4297 235.832 47.4297C236.457 47.4297 237.219 47.5273 238.117 47.7227C239.055 47.8789 239.66 48.0547 239.934 48.25ZM261.496 48.6016V112H251.184V48.6016H261.496ZM250.598 31.7852C250.598 30.0273 251.086 28.543 252.062 27.332C253.039 26.1211 254.504 25.5156 256.457 25.5156C258.41 25.5156 259.875 26.1211 260.852 27.332C261.867 28.543 262.375 30.0273 262.375 31.7852C262.375 33.4648 261.867 34.9102 260.852 36.1211C259.875 37.293 258.41 37.8789 256.457 37.8789C254.504 37.8789 253.039 37.293 252.062 36.1211C251.086 34.9102 250.598 33.4648 250.598 31.7852ZM288.273 60.7891V136.375H277.902V48.6016H287.336L288.273 60.7891ZM323.723 77.4297V83.3477C323.723 88.3477 323.254 92.7227 322.316 96.4727C321.418 100.184 320.07 103.289 318.273 105.789C316.516 108.25 314.348 110.105 311.77 111.355C309.191 112.566 306.242 113.172 302.922 113.172C299.602 113.172 296.711 112.547 294.25 111.297C291.828 110.008 289.777 108.152 288.098 105.73C286.457 103.309 285.148 100.398 284.172 97C283.234 93.5625 282.59 89.7148 282.238 85.457V76.4336C282.59 71.9414 283.234 67.918 284.172 64.3633C285.109 60.7695 286.398 57.7227 288.039 55.2227C289.719 52.6836 291.77 50.75 294.191 49.4219C296.652 48.0937 299.523 47.4297 302.805 47.4297C306.203 47.4297 309.191 48.0156 311.77 49.1875C314.387 50.3594 316.574 52.1758 318.332 54.6367C320.129 57.0586 321.477 60.1641 322.375 63.9531C323.273 67.7031 323.723 72.1953 323.723 77.4297ZM313.352 83.3477V77.4297C313.352 73.9141 313.078 70.8477 312.531 68.2305C312.023 65.6133 311.203 63.4453 310.07 61.7266C308.938 60.0078 307.512 58.7188 305.793 57.8594C304.074 57 302.004 56.5703 299.582 56.5703C297.512 56.5703 295.676 57 294.074 57.8594C292.512 58.7188 291.164 59.8906 290.031 61.375C288.898 62.8203 287.961 64.4805 287.219 66.3555C286.477 68.1914 285.93 70.1055 285.578 72.0977V89.8516C286.242 92.3516 287.121 94.7148 288.215 96.9414C289.309 99.1289 290.773 100.906 292.609 102.273C294.484 103.641 296.848 104.324 299.699 104.324C302.082 104.324 304.133 103.895 305.852 103.035C307.57 102.176 308.977 100.887 310.07 99.168C311.203 97.4102 312.023 95.2227 312.531 92.6055C313.078 89.9492 313.352 86.8633 313.352 83.3477ZM365.91 26.6875V112H355.246V26.6875H365.91ZM388.352 26.6875V35.9453H332.863V26.6875H388.352ZM405.461 58.5625V112H395.09V48.6016H405.109L405.461 58.5625ZM421.223 48.25L421.281 58.3281C420.422 58.1328 419.641 58.0156 418.938 57.9766C418.273 57.8984 417.492 57.8594 416.594 57.8594C414.641 57.8594 412.922 58.25 411.438 59.0312C409.992 59.8125 408.742 60.9062 407.688 62.3125C406.633 63.7188 405.793 65.3984 405.168 67.3516C404.543 69.2656 404.113 71.375 403.879 73.6797L401.184 75.4375C401.184 71.6094 401.477 68.0156 402.062 64.6562C402.688 61.2969 403.645 58.3281 404.934 55.75C406.223 53.1328 407.863 51.1016 409.855 49.6562C411.887 48.1719 414.309 47.4297 417.121 47.4297C417.746 47.4297 418.508 47.5273 419.406 47.7227C420.344 47.8789 420.949 48.0547 421.223 48.25ZM460.363 101.16V66.7656C460.363 64.2656 459.973 62.2539 459.191 60.7305C458.449 59.207 457.316 58.0938 455.793 57.3906C454.309 56.6875 452.434 56.3359 450.168 56.3359C447.98 56.3359 446.086 56.7852 444.484 57.6836C442.922 58.582 441.711 59.7734 440.852 61.2578C440.031 62.7422 439.621 64.3828 439.621 66.1797H429.25C429.25 63.9141 429.738 61.668 430.715 59.4414C431.73 57.2148 433.176 55.2031 435.051 53.4062C436.926 51.5703 439.172 50.125 441.789 49.0703C444.445 47.9766 447.414 47.4297 450.695 47.4297C454.602 47.4297 458.059 48.0742 461.066 49.3633C464.074 50.6133 466.438 52.6641 468.156 55.5156C469.875 58.3672 470.734 62.1562 470.734 66.8828V98.1719C470.734 100.281 470.891 102.527 471.203 104.91C471.555 107.293 472.043 109.344 472.668 111.062V112H461.945C461.438 110.75 461.047 109.09 460.773 107.02C460.5 104.91 460.363 102.957 460.363 101.16ZM462.004 73.5625L462.121 81.1797H454.914C452.453 81.1797 450.207 81.4531 448.176 82C446.184 82.5469 444.465 83.3477 443.02 84.4023C441.574 85.418 440.461 86.6875 439.68 88.2109C438.938 89.7344 438.566 91.4727 438.566 93.4258C438.566 95.9648 438.918 97.9961 439.621 99.5195C440.324 101.004 441.379 102.078 442.785 102.742C444.191 103.406 445.969 103.738 448.117 103.738C450.734 103.738 453.039 103.133 455.031 101.922C457.023 100.711 458.566 99.2461 459.66 97.5273C460.793 95.8086 461.32 94.207 461.242 92.7227L463.527 97.5859C463.371 99.1094 462.863 100.77 462.004 102.566C461.184 104.324 460.031 106.023 458.547 107.664C457.062 109.266 455.305 110.594 453.273 111.648C451.281 112.664 449.035 113.172 446.535 113.172C442.863 113.172 439.641 112.469 436.867 111.062C434.133 109.656 432.004 107.586 430.48 104.852C428.957 102.117 428.195 98.7383 428.195 94.7148C428.195 91.668 428.723 88.8555 429.777 86.2773C430.832 83.6992 432.395 81.4727 434.465 79.5977C436.535 77.6836 439.133 76.1992 442.258 75.1445C445.422 74.0898 449.074 73.5625 453.215 73.5625H462.004ZM508.82 104.324C510.891 104.324 512.766 103.914 514.445 103.094C516.164 102.234 517.57 100.906 518.664 99.1094C519.758 97.2734 520.383 94.8906 520.539 91.9609H530.266C530.109 96.1797 529.035 99.8906 527.043 103.094C525.09 106.258 522.512 108.738 519.309 110.535C516.145 112.293 512.648 113.172 508.82 113.172C504.719 113.172 501.145 112.508 498.098 111.18C495.09 109.852 492.59 107.938 490.598 105.438C488.645 102.898 487.18 99.832 486.203 96.2383C485.227 92.6055 484.738 88.4844 484.738 83.875V76.7266C484.738 72.1172 485.227 68.0156 486.203 64.4219C487.18 60.7891 488.645 57.7227 490.598 55.2227C492.59 52.6836 495.09 50.75 498.098 49.4219C501.145 48.0937 504.719 47.4297 508.82 47.4297C513.117 47.4297 516.828 48.3477 519.953 50.1836C523.117 51.9805 525.578 54.5977 527.336 58.0352C529.133 61.4336 530.109 65.5547 530.266 70.3984H520.539C520.383 67.2734 519.816 64.6758 518.84 62.6055C517.863 60.4961 516.535 58.9336 514.855 57.918C513.176 56.8633 511.164 56.3359 508.82 56.3359C506.086 56.3359 503.82 56.8242 502.023 57.8008C500.266 58.7383 498.879 60.1055 497.863 61.9023C496.848 63.6992 496.125 65.8477 495.695 68.3477C495.305 70.8477 495.109 73.6406 495.109 76.7266V83.875C495.109 86.9609 495.305 89.7734 495.695 92.3125C496.125 94.8125 496.828 96.9609 497.805 98.7578C498.82 100.555 500.227 101.941 502.023 102.918C503.82 103.855 506.086 104.324 508.82 104.324ZM552.707 22V112H542.336V22H552.707ZM584.875 48.6016L562.316 78.1914L548.371 94.2461L547.668 82.7031L557.277 69.4609L572.395 48.6016H584.875ZM575.383 112L557.57 81.7656L562.902 72.0977L587.453 112H575.383Z" fill="black"/>
<defs>
<clipPath id="clip0_1_14">
<rect width="122.88" height="122.879" fill="white" transform="translate(0 15)"/>
</clipPath>
</defs>
</svg>
