<svg width="31" height="31" viewBox="0 0 31 31" fill="none" xmlns="http://www.w3.org/2000/svg">
<path d="M15.0158 25.0332C14.6887 25.0329 14.3751 24.9026 14.1441 24.671C13.9131 24.4395 13.7835 24.1256 13.7838 23.7985L13.7922 16.2985L6.29217 16.2902C5.96065 16.2898 5.64286 16.1578 5.4087 15.9231C5.17454 15.6884 5.0432 15.3703 5.04356 15.0388C5.04393 14.7073 5.17598 14.3895 5.41066 14.1553C5.64534 13.9212 5.96343 13.7898 6.29495 13.7902L13.7949 13.7985L13.8033 6.29855C13.8037 5.96703 13.9357 5.64923 14.1704 5.41507C14.4051 5.18092 14.7232 5.04957 15.0547 5.04994C15.3862 5.05031 15.704 5.18236 15.9382 5.41704C16.1723 5.65172 16.3037 5.96981 16.3033 6.30133L16.2949 13.8013L23.7949 13.8097C24.1265 13.81 24.4443 13.9421 24.6784 14.1768C24.9126 14.4114 25.0439 14.7295 25.0436 15.0611C25.0432 15.3926 24.9111 15.7104 24.6765 15.9445C24.4418 16.1787 24.1237 16.31 23.7922 16.3097L16.2922 16.3013L16.2838 23.8013C16.2835 24.1284 16.1532 24.442 15.9216 24.673C15.6901 24.9041 15.3762 25.0336 15.0491 25.0333" fill="#D9D9D9"/>
</svg>
