<svg width="18" height="18" viewBox="0 0 18 18" fill="none" xmlns="http://www.w3.org/2000/svg">
<path d="M7.55402 14.353C8.95148 14.3546 10.2615 13.9342 11.3522 13.2147L15.1975 17.0774C15.4521 17.3237 15.7771 17.4471 16.1287 17.4475C16.8582 17.4484 17.395 16.8777 17.3958 16.157C17.3961 15.823 17.2822 15.4977 17.0364 15.2513L13.2175 11.4062C14.0097 10.2821 14.4771 8.92031 14.4787 7.44375C14.4829 3.63808 11.3751 0.523297 7.5694 0.519064C3.77253 0.51484 0.648956 3.6227 0.644723 7.42836C0.64049 11.234 3.74836 14.3488 7.55402 14.353ZM7.55607 12.5073C4.76994 12.5042 2.48733 10.2165 2.49042 7.43041C2.49352 4.64428 4.78122 2.36167 7.56735 2.36477C10.3535 2.36786 12.6361 4.65556 12.633 7.44169C12.6299 10.2278 10.3422 12.5104 7.55607 12.5073Z" fill="#D9D9D9"/>
</svg>
